<?xml version="1.0" encoding="utf-8"?>
<!-- Generator: Adobe Illustrator 16.0.4, SVG Export Plug-In . SVG Version: 6.00 Build 0)  -->
<!DOCTYPE svg PUBLIC "-//W3C//DTD SVG 1.1//EN" "http://www.w3.org/Graphics/SVG/1.1/DTD/svg11.dtd">
<svg version="1.1" id="Layer_1" xmlns="http://www.w3.org/2000/svg" xmlns:xlink="http://www.w3.org/1999/xlink" x="0px" y="0px"
	 width="200px" height="200px" viewBox="0 0 200 200" enable-background="new 0 0 200 200" xml:space="preserve">
<path fill="#FFFFFF" d="M59.058,44.533L48.196,33.64c12.135-9.472,26.926-15.689,43.063-17.29v28.182H62.057H59.058z M54.401,52.188
	v-6.074l-9.655-9.628c-1.921,1.67-3.763,3.425-5.525,5.261l15.18,14.527V52.188z M61.419,72.056l-4.647-4.435l-2.371-2.261v-2.856
	L36.224,45.041C25.256,57.755,18.029,73.778,16.303,91.402h45.116V72.056z M61.419,95.854H15.991
	c-0.056,1.25-0.096,2.504-0.096,3.769c0,1.334,0.039,2.658,0.101,3.978h45.423V95.854z M103.457,16.033
	c-1.285-0.059-2.575-0.098-3.874-0.098c-1.298,0-2.587,0.04-3.872,0.098v28.5h7.746V16.033z M125.765,44.533l2.229,2.18l3.877,3.79
	l17.848-17.846c-11.894-8.926-26.23-14.76-41.812-16.305v28.182h14.738H125.765z M137.775,56.27l2.821,2.757L157.424,42.2
	l-5.478-5.477l-16.858,16.859L137.775,56.27z M113.725,75.782l-1.89-1.889l-21.083-0.006v10.526h21.086l1.895-1.896L113.725,75.782z
	 M90.71,113.437v10.526h21.086l1.896-1.895l-0.009-6.734l-1.889-1.89L90.71,113.437z M95.711,182.46h7.746l0.02-29.154h-7.745
	L95.711,182.46z M144.669,131.621v3.225l-0.415,0.405l18.813,18.812c10.854-12.643,18.025-28.535,19.781-46.012h-38.18V131.621z
	 M183.177,95.854h-39.362l-1.226-0.005l-3.151,3.229l2.888,2.784l1.805,1.738h39.042c0.062-1.319,0.101-2.644,0.101-3.978
	C183.272,98.358,183.232,97.104,183.177,95.854z M137.1,142.236l-1.443,1.442l18.814,19.038c1.95-1.697,3.817-3.482,5.603-5.353
	l-18.893-19.113L137.1,142.236z M198.167,99.623c0,54.447-44.137,98.583-98.584,98.583C45.137,198.206,1,154.07,1,99.623
	C1,45.176,45.137,1.04,99.583,1.04C154.03,1.04,198.167,45.176,198.167,99.623z M194.401,99.622
	c0-52.282-42.535-94.816-94.818-94.816c-52.282,0-94.816,42.535-94.816,94.816c0,52.283,42.535,94.818,94.816,94.818
	C151.866,194.44,194.401,151.905,194.401,99.622z M54.401,132.482l2.374-2.261l4.644-4.427v-17.743h-45.1
	c1.674,16.656,8.26,31.882,18.274,44.219l19.808-19.708V132.482z M127.992,151.126l-2.23,2.18h-3.116h-14.738v29.589
	c16.162-1.603,30.97-7.835,43.115-17.33l-18.682-18.683L127.992,151.126z M54.401,151.232v-5.583v-2.2l-0.008-4.778l-2.365,2.533
	l-14.536,14.462c1.99,2.204,4.099,4.296,6.311,6.276l10.227-10.226L54.401,151.232z M58.734,153.306L47.21,164.829
	c12.315,9.912,27.473,16.422,44.049,18.065v-29.589H62.057H58.734z M144.669,63.005v3.223v24.243v0.931h38.195
	c-1.777-18.136-9.37-34.584-20.88-47.468l-18.203,18.203L144.669,63.005z M122.69,52.512H62.103v9.896l7.019,6.697v60.293
	l-7.019,6.688v9.888h60.587l14.37-14.03v-24.246l-8.783-8.463l8.783-8.438V66.551L122.69,52.512 M83.143,92.392v-25.84l31.912,0.011
	l6.369,6.369l0.016,13.077l-6.385,6.383H83.143 M83.101,131.943v-25.84l31.913,0.01l6.369,6.37l0.014,13.077l-6.383,6.383H83.101
	 M124.121,49.002l1.021,1l14.37,14.04l1.058,1.034v1.476v24.246v1.493l-1.078,1.036l-6.15,5.913l6.152,5.931l1.076,1.035v1.493
	v24.246v1.479l-1.058,1.032l-14.37,14.031l-1.021,0.998h-1.431H62.103h-3.508v-3.511v-9.888v-1.502l1.088-1.036l5.93-5.652v-57.29
	l-5.931-5.66l-1.087-1.038v-1.501v-9.896v-3.509h3.508h60.587H124.121L124.121,49.002z M86.652,88.884h26.949l4.327-4.327
	l-0.011-10.17l-4.316-4.316l-26.949-0.009V88.884L86.652,88.884z M86.61,128.437h26.95l4.327-4.325l-0.012-10.172l-4.315-4.317
	l-26.95-0.009V128.437L86.61,128.437z"/>
</svg>
