<?xml version="1.0" encoding="utf-8"?>
<!-- Generator: Adobe Illustrator 16.0.4, SVG Export Plug-In . SVG Version: 6.00 Build 0)  -->
<!DOCTYPE svg PUBLIC "-//W3C//DTD SVG 1.1 Tiny//EN" "http://www.w3.org/Graphics/SVG/1.1/DTD/svg11-tiny.dtd">
<svg version="1.1" baseProfile="tiny" id="Layer_1" xmlns="http://www.w3.org/2000/svg" xmlns:xlink="http://www.w3.org/1999/xlink"
	 x="0px" y="0px" width="200px" height="200px" viewBox="0 0 200 200" xml:space="preserve">
<path fill="#FFFFFF" d="M104.279,123.148c0,1.362-0.03,2.728,0.004,4.091c0.256,10.112,1.725,19.972,6.156,29.21
	c2.982,6.218,6.916,11.712,12.367,16.002c1.012,0.798,1.178,1.475,0.821,2.642c-1.035,3.4-1.948,6.837-2.994,10.558
	c-0.957-0.562-1.812-0.987-2.588-1.525c-10.956-7.632-17.801-18.217-21.939-30.709c-2.679-8.087-3.789-16.438-3.974-24.928
	c-0.042-1.846-0.006-3.693-0.006-6.014c-2.121,2.565-3.954,4.832-5.836,7.055c-5.058,5.973-10.657,11.369-16.933,16.064
	c-6.012,4.499-12.623,7.479-20.213,7.646c-7.8,0.171-19.051-2.892-23.567-11.541c-2.874-5.507-2.654-11.185-0.758-16.909
	c0.304-0.915,0.629-1.555-0.484-2.292c-8.813-5.833-12.722-13.94-10.683-24.452c1.983-10.223,8.544-16.374,18.261-19.389
	c7.101-2.206,14.411-2.207,21.583-0.867c8.406,1.569,16.684,3.837,25.018,5.803c0.502,0.119,1.005,0.236,1.809,0.422
	c-3.068-3.825-6.028-7.347-8.805-11.005c-5.417-7.141-10.211-14.656-12.126-23.577c-2.035-9.473-0.159-18.086,6.19-25.578
	c5.426-6.403,13.698-8.433,22.354-5.246c2.452,0.903,4.743,2.288,7.018,3.606c0.981,0.568,1.532,0.551,2.375-0.226
	c3.275-3.023,6.812-5.712,11.258-6.745c9.227-2.143,16.68,0.907,22.389,8.215c8.487,10.871,9.201,22.819,4.267,35.324
	c-3.902,9.884-9.724,18.572-17.021,26.281c-0.406,0.427-0.774,0.887-1.01,1.635c1.914-0.751,3.84-1.469,5.738-2.257
	c7.82-3.238,15.814-6.084,24.225-7.089c11.913-1.425,22.771,1.181,30.598,11.008c4.314,5.42,6.74,11.803,5.793,19
	c-0.777,5.898-4.058,10.236-8.855,13.468c-1.574,1.062-1.941,1.858-1.218,3.8c3.889,10.412-2.738,23.943-13.808,27.913
	c-10.104,3.625-19.797,1.994-27.951-4.776c-8.828-7.332-16.988-15.475-25.418-23.291c-0.514-0.479-0.811-1.19-1.209-1.793
	C104.827,122.833,104.555,122.991,104.279,123.148z"/>
</svg>
