<?xml version="1.0" encoding="UTF-8" standalone="no"?>
<svg width="358px" height="167px" viewBox="0 0 358 167" version="1.1" xmlns="http://www.w3.org/2000/svg" xmlns:xlink="http://www.w3.org/1999/xlink" xmlns:sketch="http://www.bohemiancoding.com/sketch/ns">
    <!-- Generator: Sketch 3.5.1 (25234) - http://www.bohemiancoding.com/sketch -->
    <title>Group 2</title>
    <desc>Created with Sketch.</desc>
    <defs></defs>
    <g id="Page-1" stroke="none" stroke-width="1" fill="none" fill-rule="evenodd" sketch:type="MSPage">
        <g id="patriots_white" sketch:type="MSLayerGroup" fill="#FFFFFF">
            <g id="Group" sketch:type="MSShapeGroup">
                <g id="Group-2">
                    <path d="M347.464,13.028 C314.307,22.638 286.988,-0.248 245.833,0.447 L245.77,0.444 C245.77,0.444 189.206,-1.223 134.826,19.203 C80.044,38.756 42.502,53.589 7.048,57.843 C-1.282,59.149 -2.065,71.817 7.899,72.474 C40.69,73.711 62.857,71.4 84.528,67.071 C81.442,76.583 91.033,77.541 91.175,77.549 C116.919,80.771 137.804,78.121 158.151,73.893 C152.957,80.16 157.162,85.777 161.64,86.725 C238.404,100.299 267.64,139.175 295.728,166.803 C303.609,165.772 320.441,155.76 315.019,135.502 C315.019,135.502 317.088,131.007 317.084,127.461 L326.781,121.667 C326.781,121.667 322.678,101.202 322.172,98.85 C327.49,96.079 337.146,91.251 337.146,91.251 C337.146,91.251 354.636,29.643 356.748,21.713 C358.632,14.597 351.262,11.93 347.464,13.028 L347.464,13.028 Z M8.041,65.125 C69.359,56.772 119.969,27.658 172.059,15.89 C173.698,22.248 176.666,34.943 176.666,34.943 C102.139,50.622 94.266,67.872 8.041,65.125 L8.041,65.125 Z M91.192,70.181 C131.94,64.24 156.565,49.063 179.647,44.214 C181.011,49.898 182.78,55.733 183.929,60.34 C123.337,76.829 91.192,70.181 91.192,70.181 L91.192,70.181 Z M330.932,86.171 C325.114,88.958 319.397,91.897 313.74,95.024 C315.716,102.545 316.791,110.639 318.574,118.121 L309.712,123.292 L309.743,128.737 L306.954,136.009 C310.225,140.339 309.304,146.606 306.739,150.975 C304.581,154.501 301.108,157.145 297.66,159.102 C297.66,159.102 247.825,91.372 162.926,79.487 C186.824,75.705 195.884,64.78 237.159,64.893 C222.506,56.818 203.745,56.174 186.593,60.019 C185.674,56.401 182.471,43.369 182.471,43.369 C193.521,40.215 204.944,38.91 216.627,38.082 C205.466,33.836 193.091,33.366 180.235,34.487 C178.695,28.077 177.378,21.857 175.66,15.157 C197.619,10.13 222.15,7.631 245.638,7.8 C273.145,7.996 309.971,20.439 309.971,20.439 C322.419,23.895 336.885,23.884 349.575,20.075 C347.748,28.041 330.932,86.171 330.932,86.171 L330.932,86.171 Z" id="Shape"></path>
                    <path d="M314.398,45.802 C313.575,42.452 311.951,32.906 311.472,31.993 L303.097,42.836 C303.097,42.836 291.791,39.881 285.504,38.611 C289.45,42.763 293.337,46.527 296.842,50.651 C293.519,55.692 289.256,60.479 285.777,65.329 C292.211,63.151 298.751,61.213 305.183,58.984 C309.834,63.696 314.81,68.837 319.412,73.354 C318.617,67.209 316.794,61.053 316.212,55.243 L330.818,50.275 C325.549,48.578 319.814,47.441 314.398,45.802 L314.398,45.802 Z" id="Shape"></path>
                    <path d="M299.087,90.577 C297.451,92.509 297.109,94.973 296.272,97.265 C296.272,97.265 273.977,97.744 274.058,97.351 C275.662,92.333 279.579,86.859 290.457,87.007 C285.737,83.278 279.511,83.226 273.14,83.411 C266.565,83.599 259.021,87.67 256.831,93.496 L277.681,107.796 C278.808,112.506 280.478,117.243 281.06,121.925 C279.9,121.09 276.002,115.255 273.863,112.982 C272.213,111.239 266.301,106.599 259.427,105.265 C256.126,104.911 253.33,106.465 251.452,109.374 C269.942,119.888 285.082,136.229 299.018,151.788 C299.018,151.788 306.801,145.893 303.968,141.092 C301.447,138.291 297.79,133.943 297.79,133.943 L303.812,133.691 C304.58,132.093 305.3,130.539 305.961,128.747 L299.862,128.749 C296.579,129.645 290.248,130.721 290.248,130.721 C293.197,128.543 295.517,126.432 298.468,124.253 L304.935,124.078 L305.111,121.111 C302.765,120.174 300.095,118.59 297.707,117.709 L299.853,115.02 C304.154,114.749 307.837,114.835 312.099,114.755 C312.099,114.755 307.21,89.01 306.689,87.172 C303.949,87.236 300.797,88.102 299.087,90.577 L299.087,90.577 Z" id="Shape"></path>
                </g>
            </g>
        </g>
    </g>
</svg>