<?xml version="1.0" encoding="utf-8"?>
<!-- Generator: Adobe Illustrator 16.0.4, SVG Export Plug-In . SVG Version: 6.00 Build 0)  -->
<!DOCTYPE svg PUBLIC "-//W3C//DTD SVG 1.1 Tiny//EN" "http://www.w3.org/Graphics/SVG/1.1/DTD/svg11-tiny.dtd">
<svg version="1.1" baseProfile="tiny" id="Layer_1" xmlns="http://www.w3.org/2000/svg" xmlns:xlink="http://www.w3.org/1999/xlink"
	 x="0px" y="0px" width="200px" height="200px" viewBox="0 0 200 200" xml:space="preserve">
<path fill="#FFFFFF" d="M11.223,133.68c0.071-4.23,2.155-8.896,5.062-13.25c0.852-1.281,1.736-2.578,2.802-3.68
	c6.425-6.632,10.424-14.677,13.327-23.276c3.37-9.987,6.299-20.122,9.683-30.104c1.679-4.954,3.8-9.776,6.008-14.524
	c1.347-2.896,3.331-5.424,6.551-6.64c0.416-0.157,0.719-0.848,0.901-1.353c1.783-4.935,3.525-9.885,5.286-14.829
	c1.348-3.783,3.943-5.027,7.726-3.687C76.554,25.166,84.54,28,92.524,30.843c3.714,1.322,4.908,3.864,3.58,7.628
	c-1.744,4.949-3.489,9.897-5.273,14.832c-0.315,0.875-0.326,1.579,0.135,2.444c1.613,3.035,1.582,6.304,0.527,9.418
	c-1.187,3.496-2.501,7.016-4.31,10.217c-5.502,9.742-9.852,19.942-12.945,30.677c-1.164,4.039-2.008,8.141-1.448,12.399
	c0.549,4.181,2.7,7.34,6.015,9.819c7.802,5.832,15.615,11.646,23.373,17.537c7.588,5.761,13.981,12.574,18.098,21.287
	c1.658,3.508,2.861,7.156,2.731,11.123c-0.092,2.768-0.713,3.727-3.358,4.184c-5.45,0.945-10.905,1.951-16.4,2.521
	c-5.786,0.602-11.377-0.666-16.464-3.47c-7.553-4.155-15.015-8.481-22.438-12.869c-7.22-4.265-14.265-8.888-22.234-11.661
	c-3.845-1.34-7.897-2.082-11.851-3.113c-4.227-1.103-8.267-2.646-11.817-5.252C13.804,145.16,11.152,140.689,11.223,133.68z
	 M38.625,127.818c-4.915-3.319-10.062-5.896-15.447-8.004c-0.286-0.111-0.908,0.19-1.15,0.484c-2.566,3.11-4.648,6.506-5.707,10.434
	c-1.137,4.221-0.881,8.257,2.123,11.695c3.832,4.387,9.067,6.055,14.688,7.432C33.759,142.15,35.364,134.863,38.625,127.818z
	 M101.924,180.506c0.021,0.119,0.04,0.238,0.061,0.358c4.977-0.826,9.945-1.69,14.933-2.445c1.479-0.226,1.819-0.954,1.54-2.251
	c-0.062-0.281-0.083-0.57-0.145-0.854c-1.062-4.998-3.436-9.377-6.473-13.412c-0.346-0.459-1.314-0.698-1.961-0.641
	c-3.486,0.316-6.958,0.862-10.449,1.127c-2.624,0.2-3.307,0.713-3.047,3.338c0.412,4.166,0.92,8.324,1.432,12.48
	c0.178,1.46,1.048,2.2,2.519,2.292C100.861,180.533,101.395,180.506,101.924,180.506z M82.749,32.211
	c-0.352-0.34-0.783-1.076-1.163-1.049c-0.582,0.04-1.417,0.473-1.638,0.965c-0.764,1.707-1.305,3.511-1.937,5.275
	c-1.311,3.667-2.659,7.32-3.9,11.008c-0.177,0.524,0.008,1.315,0.313,1.802c0.17,0.271,1.052,0.383,1.399,0.188
	c0.436-0.247,0.763-0.841,0.95-1.354c1.873-5.148,3.708-10.312,5.55-15.472C82.453,33.214,82.552,32.845,82.749,32.211z
	 M68.735,47.545c0.332,0.348,0.716,1.084,1.188,1.145c0.489,0.064,1.349-0.4,1.552-0.855c0.762-1.708,1.328-3.505,1.959-5.271
	c1.326-3.714,2.681-7.419,3.934-11.158c0.175-0.522-0.002-1.311-0.308-1.789c-0.173-0.27-1.056-0.37-1.408-0.17
	c-0.439,0.247-0.771,0.839-0.959,1.351c-1.871,5.154-3.702,10.321-5.544,15.487C69.036,46.599,68.941,46.921,68.735,47.545z
	 M63.849,45.857c0.241,0.28,0.518,0.876,0.934,1.002c0.351,0.106,1.003-0.226,1.275-0.563c0.345-0.425,0.447-1.049,0.641-1.593
	c1.832-5.117,3.679-10.23,5.463-15.364c0.159-0.455,0.004-1.092-0.195-1.563c-0.084-0.195-0.812-0.361-1.002-0.217
	c-0.422,0.318-0.818,0.797-0.999,1.291c-1.863,5.107-3.681,10.23-5.512,15.347C64.293,44.649,64.125,45.101,63.849,45.857z
	 M87.613,33.958c-0.246-0.288-0.52-0.892-0.937-1.013c-0.345-0.101-0.91,0.305-1.275,0.605c-0.226,0.188-0.266,0.603-0.379,0.919
	c-1.334,3.71-2.665,7.42-3.996,11.13c-0.583,1.629-1.159,3.261-1.75,4.888c-0.278,0.766-0.284,1.491,0.598,1.789
	c0.871,0.294,1.34-0.259,1.582-1.047c0.056-0.184,0.144-0.356,0.208-0.538c1.831-5.112,3.662-10.228,5.489-15.342
	C87.284,34.989,87.395,34.623,87.613,33.958z M92.486,35.663c-0.192-0.252-0.392-0.757-0.73-0.878
	c-0.259-0.094-0.74,0.239-1.032,0.488c-0.195,0.165-0.239,0.512-0.336,0.784c-1.926,5.384-3.85,10.77-5.774,16.155
	c-0.096,0.271-0.288,0.574-0.234,0.819c0.081,0.37,0.267,0.895,0.54,0.994c0.279,0.101,0.763-0.167,1.066-0.394
	c0.201-0.147,0.249-0.507,0.347-0.778c1.939-5.429,3.879-10.859,5.819-16.29C92.231,36.336,92.32,36.111,92.486,35.663z
	 M60.2,45.167c0.219-0.301,0.578-0.624,0.721-1.025c2.052-5.648,4.088-11.302,6.062-16.979c0.134-0.383-0.266-0.952-0.419-1.436
	c-0.419,0.284-1.043,0.479-1.219,0.874c-0.586,1.312-1.014,2.696-1.501,4.054c-1.522,4.255-3.036,8.513-4.572,12.763
	C58.976,44.248,58.858,44.937,60.2,45.167z"/>
<path fill="#FFFFFF" d="M98.777,121.161c-6.776-1.978-13.092-3.82-19.726-5.757c-0.383,2.378-0.755,4.675-1.146,7.094
	c-1.076-1.312-1.523-2.864-1.732-4.505c-0.474-3.767,0.314-7.392,1.348-10.966c3.075-10.645,7.396-20.752,12.894-30.378
	c2.37-4.146,4.278-8.52,4.994-13.319c0.408-2.729,0.147-5.361-0.808-7.963c-0.237-0.646-0.275-1.507-0.057-2.153
	c1.47-4.33,2.986-8.647,4.584-12.931c0.868-2.324,1.034-4.565,0.596-7.055c-0.817-4.644-1.238-9.357-1.822-14.042
	c-0.095-0.764-0.064-1.58-0.334-2.276c-0.201-0.52-0.771-1.22-1.216-1.25c-0.875-0.058-1.144,0.696-1.038,1.533
	c0.416,3.25,0.828,6.5,1.232,9.751c0.073,0.613,0.096,1.232,0.146,1.889c-2.012-0.521-3.254-1.387-3.254-3.715
	c0-2.295-0.448-4.6-0.829-6.877c-0.113-0.677-0.516-1.537-1.056-1.855c-0.974-0.574-1.942,0.458-1.773,1.802
	c0.314,2.534,0.656,5.063,0.981,7.595c0.024,0.18,0.004,0.367,0.004,0.558c-2.292-0.258-2.517-0.438-2.805-2.416
	c-0.27-1.861-0.505-3.724-0.742-5.587c-0.113-0.889-0.549-1.495-1.482-1.424c-1.026,0.077-1.355,0.812-1.252,1.751
	c0.201,1.859,0.427,3.714,0.644,5.59c-2.482-0.085-2.949-0.524-3.155-2.779c-0.077-0.864-0.189-1.724-0.307-2.583
	c-0.111-0.795-0.513-1.559-1.356-1.26c-0.457,0.162-0.776,1.03-0.931,1.636c-0.119,0.474,0.119,1.038,0.182,1.563
	c0.062,0.52,0.104,1.042,0.176,1.781c-1.041-0.36-1.994-0.621-2.878-1.031c-0.305-0.139-0.517-0.623-0.632-0.992
	c-0.14-0.453-0.015-1.016-0.225-1.41c-0.204-0.383-0.692-0.614-1.055-0.913c-0.237,0.362-0.558,0.696-0.679,1.094
	c-0.103,0.336,0.024,0.743,0.068,1.375c-1.567-0.558-2.978-1.061-4.364-1.554c0.314-2.659,1.939-4.467,4.38-4.778
	c8.983-1.143,17.971-2.256,26.962-3.345c2.82-0.341,5.347,1.666,5.722,4.543c0.721,5.542,1.372,11.092,2.092,16.633
	c0.069,0.523,0.294,1.227,0.685,1.478c4.963,3.179,7.09,8.076,7.908,13.561c0.992,6.664,1.647,13.381,2.379,20.083
	c0.813,7.465,1.367,14.966,2.403,22.401c0.386,2.745,1.586,5.462,2.831,7.986c3.376,6.852,9.348,10.369,16.564,11.816
	c5.518,1.107,11.115,1.817,16.685,2.666c14.226,2.164,27.438,14.396,30.532,28.319c0.195,0.89,0.316,1.812,0.354,2.72
	c0.063,1.69-0.492,3-2.055,3.984c-5.1,3.212-10.711,4.796-16.617,5.391c-11.742,1.183-23.135-0.438-34.298-4.229
	c-9.058-3.076-18.415-4.893-27.927-5.909c-1.244-0.133-2.502-0.178-3.738-0.366c-0.925-0.144-1.87-0.347-2.73-0.701
	c-3.212-1.324-3.235-4.256-3.294-7.037C98.707,129.971,98.777,125.537,98.777,121.161z M167.781,148.375
	c0.851-0.086,1.667-0.156,2.479-0.248c4.721-0.548,9.273-1.635,13.467-3.984c0.969-0.541,1.383-1.086,1.1-2.277
	c-1.449-6.092-4.73-11.116-8.999-15.547c-0.449-0.467-1.697-0.647-2.33-0.383c-3.985,1.683-7.905,3.523-11.841,5.322
	c-1.199,0.551-1.592,1.419-1.11,2.708c1.565,4.188,3.121,8.382,4.623,12.593C165.635,147.866,166.57,148.301,167.781,148.375z
	 M104.938,34.223c-0.16-1.311-0.271-2.217-0.383-3.122c-0.6-4.912-1.174-9.829-1.84-14.733c-0.07-0.518-0.713-1.379-1.054-1.361
	c-1.003,0.05-0.819,0.928-0.729,1.665c0.711,5.772,1.383,11.548,2.148,17.312c0.064,0.491,0.721,0.905,1.102,1.355
	C104.488,34.886,104.796,34.435,104.938,34.223z"/>
</svg>
